<svg width="24" height="24" viewBox="0 0 24 24" fill="none" xmlns="http://www.w3.org/2000/svg">
<path fill-rule="evenodd" clip-rule="evenodd" d="M12 0C5.37258 0 0 5.37258 0 12C0 18.6274 5.37258 24 12 24C18.6274 24 24 18.6274 24 12C24 5.37258 18.6274 0 12 0ZM16.2121 7.78782C15.8997 7.47542 15.3932 7.47542 15.0808 7.78782L11.9999 10.8687L8.91911 7.78782C8.60671 7.47542 8.10021 7.47542 7.78782 7.78782C7.47542 8.10021 7.47542 8.60671 7.78782 8.91911L10.8687 11.9999L7.78782 15.0808C7.47542 15.3932 7.47542 15.8997 7.78782 16.2121C8.10021 16.5245 8.60671 16.5245 8.91911 16.2121L11.9999 13.1312L15.0808 16.2121C15.3932 16.5245 15.8997 16.5245 16.2121 16.2121C16.5245 15.8997 16.5245 15.3932 16.2121 15.0808L13.1312 11.9999L16.2121 8.91911C16.5245 8.60671 16.5245 8.10021 16.2121 7.78782Z" fill="#C7C7C5"/>
</svg>
